<?xml version="1.0" encoding="UTF-8" standalone="no"?>
<!DOCTYPE svg PUBLIC "-//W3C//DTD SVG 1.1//EN"
 "http://www.w3.org/Graphics/SVG/1.1/DTD/svg11.dtd">
<!-- Generated by graphviz version 9.0.0 (20230911.1827)
 -->
<!-- Title: App_GymTrend_Mobile Pages: 1 -->
<svg width="556pt" height="188pt"
 viewBox="0.00 0.00 556.15 188.00" xmlns="http://www.w3.org/2000/svg" xmlns:xlink="http://www.w3.org/1999/xlink">
<g id="graph0" class="graph" transform="scale(1 1) rotate(0) translate(4 184)">
<title>App_GymTrend_Mobile</title>
<polygon fill="white" stroke="none" points="-4,4 -4,-184 552.15,-184 552.15,4 -4,4"/>
<!-- Gym_Management -->
<g id="node1" class="node">
<title>Gym_Management</title>
<polygon fill="none" stroke="black" points="233.25,-180 89.25,-180 89.25,-144 233.25,-144 233.25,-180"/>
<text text-anchor="start" x="101.25" y="-156.95" font-family="Helvetica,sans-Serif" font-size="14.00">Gym_Management</text>
</g>
<!-- Gym_Management_Gallery -->
<g id="node2" class="node">
<title>Gym_Management_Gallery</title>
<polygon fill="none" stroke="black" points="196.5,-108 0,-108 0,-72 196.5,-72 196.5,-108"/>
<text text-anchor="start" x="12" y="-84.95" font-family="Helvetica,sans-Serif" font-size="14.00">Gym_Management_Gallery</text>
</g>
<!-- Gym_Management&#45;&gt;Gym_Management_Gallery -->
<g id="edge1" class="edge">
<title>Gym_Management&#45;&gt;Gym_Management_Gallery</title>
<path fill="none" stroke="black" d="M145.68,-143.7C138.28,-135.47 129.28,-125.48 121.13,-116.42"/>
<polygon fill="black" stroke="black" points="123.95,-114.32 114.66,-109.23 118.74,-119 123.95,-114.32"/>
</g>
<!-- Checks_List -->
<g id="node3" class="node">
<title>Checks_List</title>
<polygon fill="none" stroke="black" points="275.62,-36 172.88,-36 172.88,0 275.62,0 275.62,-36"/>
<text text-anchor="start" x="184.88" y="-12.95" font-family="Helvetica,sans-Serif" font-size="14.00">Checks_List</text>
</g>
<!-- Gym_Management_Gallery&#45;&gt;Checks_List -->
<g id="edge2" class="edge">
<title>Gym_Management_Gallery&#45;&gt;Checks_List</title>
<path fill="none" stroke="black" d="M129.72,-71.52C145.93,-62.51 165.89,-51.42 183.28,-41.76"/>
<polygon fill="black" stroke="black" points="184.82,-44.91 191.86,-37 181.42,-38.79 184.82,-44.91"/>
</g>
<!-- Checks_List&#45;&gt;Gym_Management -->
<g id="edge7" class="edge">
<title>Checks_List&#45;&gt;Gym_Management</title>
<path fill="none" stroke="black" d="M223.03,-36.19C221.18,-54.72 216.56,-84.69 205.25,-108 200.5,-117.8 193.56,-127.33 186.59,-135.55"/>
<polygon fill="black" stroke="black" points="184.19,-132.99 180.13,-142.77 189.4,-137.65 184.19,-132.99"/>
</g>
<!-- Login -->
<g id="node4" class="node">
<title>Login</title>
<polygon fill="none" stroke="black" points="488.88,-180 429.62,-180 429.62,-144 488.88,-144 488.88,-180"/>
<text text-anchor="start" x="441.62" y="-156.95" font-family="Helvetica,sans-Serif" font-size="14.00">Login</text>
</g>
<!-- Recover_Password -->
<g id="node5" class="node">
<title>Recover_Password</title>
<polygon fill="none" stroke="black" points="533.88,-108 384.62,-108 384.62,-72 533.88,-72 533.88,-108"/>
<text text-anchor="start" x="396.62" y="-84.95" font-family="Helvetica,sans-Serif" font-size="14.00">Recover_Password</text>
</g>
<!-- Login&#45;&gt;Recover_Password -->
<g id="edge3" class="edge">
<title>Login&#45;&gt;Recover_Password</title>
<path fill="none" stroke="black" d="M453.33,-143.7C452.58,-136.41 452.34,-127.73 452.6,-119.54"/>
<polygon fill="black" stroke="black" points="456.09,-119.82 453.26,-109.61 449.11,-119.36 456.09,-119.82"/>
</g>
<!-- Home -->
<g id="node6" class="node">
<title>Home</title>
<polygon fill="none" stroke="black" points="541.38,-36 479.12,-36 479.12,0 541.38,0 541.38,-36"/>
<text text-anchor="start" x="491.12" y="-12.95" font-family="Helvetica,sans-Serif" font-size="14.00">Home</text>
</g>
<!-- Login&#45;&gt;Home -->
<g id="edge4" class="edge">
<title>Login&#45;&gt;Home</title>
<path fill="none" stroke="black" d="M489.01,-150.88C508.25,-142.61 531.76,-128.84 543.25,-108 554.3,-87.97 543.66,-63.5 531.61,-45.29"/>
<polygon fill="black" stroke="black" points="534.81,-43.75 526.16,-37.62 529.11,-47.8 534.81,-43.75"/>
</g>
<!-- Recover_Password&#45;&gt;Login -->
<g id="edge5" class="edge">
<title>Recover_Password&#45;&gt;Login</title>
<path fill="none" stroke="black" d="M465.15,-108.1C465.91,-115.37 466.16,-124.04 465.9,-132.24"/>
<polygon fill="black" stroke="black" points="462.41,-131.98 465.26,-142.19 469.4,-132.43 462.41,-131.98"/>
</g>
<!-- Recover_Password&#45;&gt;Home -->
<g id="edge6" class="edge">
<title>Recover_Password&#45;&gt;Home</title>
<path fill="none" stroke="black" d="M471.86,-71.7C477.66,-63.73 484.68,-54.1 491.11,-45.26"/>
<polygon fill="black" stroke="black" points="493.84,-47.47 496.9,-37.33 488.18,-43.35 493.84,-47.47"/>
</g>
<!-- Checks_Local -->
<g id="node7" class="node">
<title>Checks_Local</title>
<polygon fill="none" stroke="black" points="366.62,-108 251.88,-108 251.88,-72 366.62,-72 366.62,-108"/>
<text text-anchor="start" x="263.88" y="-84.95" font-family="Helvetica,sans-Serif" font-size="14.00">Checks_Local</text>
</g>
<!-- Checks_Local&#45;&gt;Checks_List -->
<g id="edge8" class="edge">
<title>Checks_Local&#45;&gt;Checks_List</title>
<path fill="none" stroke="black" d="M288.24,-71.7C277.92,-63.2 265.31,-52.81 254.02,-43.51"/>
<polygon fill="black" stroke="black" points="256.43,-40.96 246.48,-37.31 251.98,-46.37 256.43,-40.96"/>
</g>
</g>
</svg>
